<svg xmlns="http://www.w3.org/2000/svg" viewBox="0 0 1600 980" role="img" aria-labelledby="title desc">
  <title id="title">Fitlyn dashboard placeholder</title>
  <desc id="desc">Dashboard placeholder screen for the Fitlyn case study.</desc>
  <defs>
    <linearGradient id="bg" x1="0%" y1="0%" x2="100%" y2="100%">
      <stop offset="0%" stop-color="#112034" />
      <stop offset="100%" stop-color="#08131f" />
    </linearGradient>
    <linearGradient id="panel" x1="0%" y1="0%" x2="100%" y2="100%">
      <stop offset="0%" stop-color="#15273f" />
      <stop offset="100%" stop-color="#0c1827" />
    </linearGradient>
    <linearGradient id="mint" x1="0%" y1="0%" x2="100%" y2="100%">
      <stop offset="0%" stop-color="#7ce0cb" />
      <stop offset="100%" stop-color="#43b8a1" />
    </linearGradient>
    <linearGradient id="gold" x1="0%" y1="0%" x2="100%" y2="100%">
      <stop offset="0%" stop-color="#f4cd8f" />
      <stop offset="100%" stop-color="#d39a51" />
    </linearGradient>
  </defs>
  <rect width="1600" height="980" rx="46" fill="#07111d" />
  <rect x="28" y="28" width="1544" height="924" rx="34" fill="url(#bg)" stroke="#24374f" />
  <rect x="28" y="28" width="1544" height="76" rx="34" fill="#101d30" />
  <circle cx="78" cy="66" r="9" fill="#6d7d93" />
  <circle cx="108" cy="66" r="9" fill="#6d7d93" />
  <circle cx="138" cy="66" r="9" fill="#6d7d93" />
  <text x="188" y="73" fill="#d8f7ee" font-size="28" font-family="Sora, Manrope, Segoe UI, sans-serif" font-weight="700">FITLYN OPS</text>
  <rect x="52" y="128" width="126" height="800" rx="24" fill="#0f1c2d" stroke="#22344a" />
  <rect x="74" y="170" width="82" height="82" rx="18" fill="url(#mint)" opacity="0.18" />
  <rect x="74" y="286" width="82" height="18" rx="9" fill="#2a3c52" />
  <rect x="74" y="334" width="82" height="18" rx="9" fill="#2a3c52" />
  <rect x="74" y="382" width="82" height="18" rx="9" fill="#2a3c52" />
  <rect x="74" y="430" width="82" height="18" rx="9" fill="#2a3c52" />
  <text x="214" y="180" fill="#7ce0cb" font-size="24" font-family="Manrope, Segoe UI, sans-serif" font-weight="700" letter-spacing="2">DASHBOARD</text>
  <text x="214" y="234" fill="#f3f8ff" font-size="52" font-family="Sora, Manrope, Segoe UI, sans-serif" font-weight="700">Monday renewal cycle</text>
  <rect x="214" y="320" width="270" height="138" rx="24" fill="url(#panel)" stroke="#274159" />
  <rect x="506" y="320" width="270" height="138" rx="24" fill="url(#panel)" stroke="#274159" />
  <rect x="798" y="320" width="270" height="138" rx="24" fill="url(#panel)" stroke="#274159" />
  <rect x="1090" y="320" width="270" height="138" rx="24" fill="url(#panel)" stroke="#274159" />
  <text x="246" y="368" fill="#8ea7c1" font-size="22" font-family="Manrope, Segoe UI, sans-serif">Pending dues</text>
  <text x="246" y="420" fill="#f4fbff" font-size="50" font-family="Sora, Manrope, Segoe UI, sans-serif" font-weight="700">42</text>
  <text x="538" y="368" fill="#8ea7c1" font-size="22" font-family="Manrope, Segoe UI, sans-serif">Expiring</text>
  <text x="538" y="420" fill="#f4fbff" font-size="50" font-family="Sora, Manrope, Segoe UI, sans-serif" font-weight="700">18</text>
  <text x="830" y="368" fill="#8ea7c1" font-size="22" font-family="Manrope, Segoe UI, sans-serif">Queue</text>
  <text x="830" y="420" fill="#f4fbff" font-size="50" font-family="Sora, Manrope, Segoe UI, sans-serif" font-weight="700">63</text>
  <rect x="214" y="494" width="702" height="374" rx="28" fill="url(#panel)" stroke="#274159" />
  <rect x="948" y="494" width="412" height="174" rx="28" fill="url(#panel)" stroke="#274159" />
  <rect x="948" y="694" width="412" height="174" rx="28" fill="url(#panel)" stroke="#274159" />
  <rect x="252" y="640" width="42" height="148" rx="20" fill="url(#mint)" opacity="0.55" />
  <rect x="326" y="594" width="42" height="194" rx="20" fill="url(#mint)" />
  <rect x="400" y="622" width="42" height="166" rx="20" fill="url(#mint)" opacity="0.75" />
  <rect x="474" y="560" width="42" height="228" rx="20" fill="url(#mint)" />
  <rect x="548" y="604" width="42" height="184" rx="20" fill="url(#mint)" opacity="0.8" />
  <rect x="622" y="532" width="42" height="256" rx="20" fill="url(#mint)" />
  <rect x="696" y="566" width="42" height="222" rx="20" fill="url(#mint)" opacity="0.88" />
  <rect x="770" y="520" width="42" height="268" rx="20" fill="url(#gold)" />
  <rect x="984" y="580" width="244" height="26" rx="13" fill="url(#gold)" opacity="0.75" />
  <rect x="984" y="622" width="198" height="26" rx="13" fill="url(#mint)" opacity="0.8" />
  <rect x="984" y="782" width="340" height="20" rx="10" fill="#22364c" />
  <rect x="984" y="820" width="300" height="20" rx="10" fill="#22364c" />
  <rect x="984" y="858" width="260" height="20" rx="10" fill="#22364c" />
  <rect x="1160" y="136" width="200" height="62" rx="18" fill="url(#mint)" />
  <text x="1210" y="176" fill="#092118" font-size="22" font-family="Manrope, Segoe UI, sans-serif" font-weight="800">Replace later</text>
</svg>
