<svg xmlns="http://www.w3.org/2000/svg" viewBox="0 0 1600 980" role="img" aria-labelledby="title desc">
  <title id="title">Fitlyn messaging placeholder</title>
  <desc id="desc">Messaging placeholder screen for the Fitlyn case study.</desc>
  <defs>
    <linearGradient id="bg" x1="0%" y1="0%" x2="100%" y2="100%">
      <stop offset="0%" stop-color="#112034" />
      <stop offset="100%" stop-color="#08131f" />
    </linearGradient>
    <linearGradient id="panel" x1="0%" y1="0%" x2="100%" y2="100%">
      <stop offset="0%" stop-color="#15273f" />
      <stop offset="100%" stop-color="#0c1827" />
    </linearGradient>
    <linearGradient id="mint" x1="0%" y1="0%" x2="100%" y2="100%">
      <stop offset="0%" stop-color="#7ce0cb" />
      <stop offset="100%" stop-color="#43b8a1" />
    </linearGradient>
    <linearGradient id="gold" x1="0%" y1="0%" x2="100%" y2="100%">
      <stop offset="0%" stop-color="#f4cd8f" />
      <stop offset="100%" stop-color="#d39a51" />
    </linearGradient>
  </defs>
  <rect width="1600" height="980" rx="46" fill="#07111d" />
  <rect x="28" y="28" width="1544" height="924" rx="34" fill="url(#bg)" stroke="#24374f" />
  <rect x="28" y="28" width="1544" height="76" rx="34" fill="#101d30" />
  <circle cx="78" cy="66" r="9" fill="#6d7d93" />
  <circle cx="108" cy="66" r="9" fill="#6d7d93" />
  <circle cx="138" cy="66" r="9" fill="#6d7d93" />
  <text x="188" y="73" fill="#d8f7ee" font-size="28" font-family="Sora, Manrope, Segoe UI, sans-serif" font-weight="700">FITLYN MESSAGING</text>
  <rect x="52" y="128" width="126" height="800" rx="24" fill="#0f1c2d" stroke="#22344a" />
  <rect x="74" y="170" width="82" height="82" rx="18" fill="url(#gold)" opacity="0.16" />
  <rect x="74" y="286" width="82" height="18" rx="9" fill="#2a3c52" />
  <rect x="74" y="334" width="82" height="18" rx="9" fill="#2a3c52" />
  <rect x="74" y="382" width="82" height="18" rx="9" fill="#2a3c52" />
  <text x="214" y="176" fill="#f4cd8f" font-size="24" font-family="Manrope, Segoe UI, sans-serif" font-weight="700" letter-spacing="2">REMINDERS AND OUTREACH</text>
  <text x="214" y="230" fill="#f3f8ff" font-size="52" font-family="Sora, Manrope, Segoe UI, sans-serif" font-weight="700">Bring follow-up inside the product</text>
  <rect x="214" y="320" width="320" height="548" rx="28" fill="url(#panel)" stroke="#274159" />
  <rect x="564" y="320" width="796" height="548" rx="28" fill="url(#panel)" stroke="#274159" />
  <rect x="252" y="408" width="244" height="74" rx="20" fill="#13253a" />
  <rect x="252" y="500" width="244" height="74" rx="20" fill="#102133" />
  <rect x="252" y="592" width="244" height="74" rx="20" fill="#13253a" />
  <rect x="252" y="684" width="244" height="74" rx="20" fill="#102133" />
  <rect x="274" y="436" width="118" height="18" rx="9" fill="#e9f3ff" />
  <rect x="274" y="528" width="118" height="18" rx="9" fill="#e9f3ff" />
  <rect x="274" y="620" width="118" height="18" rx="9" fill="#e9f3ff" />
  <rect x="274" y="712" width="118" height="18" rx="9" fill="#e9f3ff" />
  <rect x="412" y="428" width="62" height="34" rx="17" fill="url(#gold)" />
  <rect x="412" y="520" width="62" height="34" rx="17" fill="url(#mint)" />
  <rect x="412" y="612" width="62" height="34" rx="17" fill="#22364c" />
  <rect x="412" y="704" width="62" height="34" rx="17" fill="#22364c" />
  <rect x="602" y="408" width="720" height="74" rx="22" fill="#102133" />
  <rect x="602" y="504" width="466" height="64" rx="20" fill="#13253a" />
  <rect x="854" y="596" width="468" height="64" rx="20" fill="#102133" />
  <rect x="602" y="688" width="496" height="64" rx="20" fill="#13253a" />
  <rect x="602" y="790" width="214" height="46" rx="23" fill="url(#mint)" />
  <rect x="840" y="790" width="184" height="46" rx="23" fill="#22364c" />
  <rect x="1048" y="790" width="274" height="46" rx="23" fill="#22364c" />
  <rect x="1128" y="136" width="232" height="62" rx="18" fill="url(#gold)" />
  <text x="1172" y="176" fill="#1b1406" font-size="22" font-family="Manrope, Segoe UI, sans-serif" font-weight="800">Replace later</text>
</svg>
