<svg xmlns="http://www.w3.org/2000/svg" viewBox="0 0 1600 980" role="img" aria-labelledby="title desc">
  <title id="title">Fitlyn reports placeholder</title>
  <desc id="desc">Reports placeholder screen for the Fitlyn case study.</desc>
  <defs>
    <linearGradient id="bg" x1="0%" y1="0%" x2="100%" y2="100%">
      <stop offset="0%" stop-color="#112034" />
      <stop offset="100%" stop-color="#08131f" />
    </linearGradient>
    <linearGradient id="panel" x1="0%" y1="0%" x2="100%" y2="100%">
      <stop offset="0%" stop-color="#15273f" />
      <stop offset="100%" stop-color="#0c1827" />
    </linearGradient>
    <linearGradient id="mint" x1="0%" y1="0%" x2="100%" y2="100%">
      <stop offset="0%" stop-color="#7ce0cb" />
      <stop offset="100%" stop-color="#43b8a1" />
    </linearGradient>
    <linearGradient id="gold" x1="0%" y1="0%" x2="100%" y2="100%">
      <stop offset="0%" stop-color="#f4cd8f" />
      <stop offset="100%" stop-color="#d39a51" />
    </linearGradient>
  </defs>
  <rect width="1600" height="980" rx="46" fill="#07111d" />
  <rect x="28" y="28" width="1544" height="924" rx="34" fill="url(#bg)" stroke="#24374f" />
  <rect x="28" y="28" width="1544" height="76" rx="34" fill="#101d30" />
  <circle cx="78" cy="66" r="9" fill="#6d7d93" />
  <circle cx="108" cy="66" r="9" fill="#6d7d93" />
  <circle cx="138" cy="66" r="9" fill="#6d7d93" />
  <text x="188" y="73" fill="#d8f7ee" font-size="28" font-family="Sora, Manrope, Segoe UI, sans-serif" font-weight="700">FITLYN REPORTS</text>
  <rect x="52" y="128" width="126" height="800" rx="24" fill="#0f1c2d" stroke="#22344a" />
  <rect x="74" y="170" width="82" height="82" rx="18" fill="url(#mint)" opacity="0.16" />
  <rect x="74" y="286" width="82" height="18" rx="9" fill="#2a3c52" />
  <rect x="74" y="334" width="82" height="18" rx="9" fill="#2a3c52" />
  <rect x="74" y="382" width="82" height="18" rx="9" fill="#2a3c52" />
  <text x="214" y="176" fill="#7ce0cb" font-size="24" font-family="Manrope, Segoe UI, sans-serif" font-weight="700" letter-spacing="2">REPORTING</text>
  <text x="214" y="230" fill="#f3f8ff" font-size="52" font-family="Sora, Manrope, Segoe UI, sans-serif" font-weight="700">Operational visibility without overload</text>
  <rect x="214" y="320" width="360" height="210" rx="28" fill="url(#panel)" stroke="#274159" />
  <rect x="600" y="320" width="360" height="210" rx="28" fill="url(#panel)" stroke="#274159" />
  <rect x="986" y="320" width="374" height="210" rx="28" fill="url(#panel)" stroke="#274159" />
  <rect x="248" y="412" width="292" height="18" rx="9" fill="#22364c" />
  <rect x="248" y="412" width="178" height="18" rx="9" fill="url(#mint)" />
  <rect x="634" y="446" width="32" height="42" rx="12" fill="url(#gold)" />
  <rect x="682" y="420" width="32" height="68" rx="12" fill="url(#gold)" />
  <rect x="730" y="390" width="32" height="98" rx="12" fill="url(#gold)" />
  <rect x="778" y="404" width="32" height="84" rx="12" fill="url(#gold)" />
  <rect x="826" y="438" width="32" height="50" rx="12" fill="url(#gold)" />
  <polyline points="1028,468 1098,420 1168,446 1238,388 1308,418" fill="none" stroke="url(#mint)" stroke-width="10" stroke-linecap="round" stroke-linejoin="round" />
  <rect x="214" y="564" width="1146" height="304" rx="30" fill="url(#panel)" stroke="#274159" />
  <rect x="252" y="654" width="1070" height="52" rx="16" fill="#102133" />
  <rect x="252" y="724" width="1070" height="52" rx="16" fill="#13253a" />
  <rect x="252" y="794" width="1070" height="52" rx="16" fill="#102133" />
  <rect x="1040" y="666" width="206" height="28" rx="14" fill="url(#mint)" opacity="0.86" />
  <rect x="1040" y="736" width="206" height="28" rx="14" fill="url(#gold)" opacity="0.86" />
  <rect x="1040" y="806" width="206" height="28" rx="14" fill="#22364c" />
  <rect x="1128" y="136" width="232" height="62" rx="18" fill="url(#mint)" />
  <text x="1172" y="176" fill="#072017" font-size="22" font-family="Manrope, Segoe UI, sans-serif" font-weight="800">Replace later</text>
</svg>
