<svg xmlns="http://www.w3.org/2000/svg" viewBox="0 0 1600 980" role="img" aria-labelledby="title desc">
  <title id="title">Fitlyn payments placeholder</title>
  <desc id="desc">Payments and plan management placeholder screen for the Fitlyn case study.</desc>
  <defs>
    <linearGradient id="bg" x1="0%" y1="0%" x2="100%" y2="100%">
      <stop offset="0%" stop-color="#112034" />
      <stop offset="100%" stop-color="#08131f" />
    </linearGradient>
    <linearGradient id="panel" x1="0%" y1="0%" x2="100%" y2="100%">
      <stop offset="0%" stop-color="#15273f" />
      <stop offset="100%" stop-color="#0c1827" />
    </linearGradient>
    <linearGradient id="mint" x1="0%" y1="0%" x2="100%" y2="100%">
      <stop offset="0%" stop-color="#7ce0cb" />
      <stop offset="100%" stop-color="#43b8a1" />
    </linearGradient>
    <linearGradient id="gold" x1="0%" y1="0%" x2="100%" y2="100%">
      <stop offset="0%" stop-color="#f4cd8f" />
      <stop offset="100%" stop-color="#d39a51" />
    </linearGradient>
  </defs>
  <rect width="1600" height="980" rx="46" fill="#07111d" />
  <rect x="28" y="28" width="1544" height="924" rx="34" fill="url(#bg)" stroke="#24374f" />
  <rect x="28" y="28" width="1544" height="76" rx="34" fill="#101d30" />
  <circle cx="78" cy="66" r="9" fill="#6d7d93" />
  <circle cx="108" cy="66" r="9" fill="#6d7d93" />
  <circle cx="138" cy="66" r="9" fill="#6d7d93" />
  <text x="188" y="73" fill="#d8f7ee" font-size="28" font-family="Sora, Manrope, Segoe UI, sans-serif" font-weight="700">FITLYN PAYMENTS</text>
  <rect x="52" y="128" width="126" height="800" rx="24" fill="#0f1c2d" stroke="#22344a" />
  <rect x="74" y="170" width="82" height="82" rx="18" fill="url(#mint)" opacity="0.16" />
  <rect x="74" y="286" width="82" height="18" rx="9" fill="#2a3c52" />
  <rect x="74" y="334" width="82" height="18" rx="9" fill="#2a3c52" />
  <rect x="74" y="382" width="82" height="18" rx="9" fill="#2a3c52" />
  <text x="214" y="176" fill="#7ce0cb" font-size="24" font-family="Manrope, Segoe UI, sans-serif" font-weight="700" letter-spacing="2">PLAN ASSIGNMENT AND PAYMENTS</text>
  <text x="214" y="230" fill="#f3f8ff" font-size="52" font-family="Sora, Manrope, Segoe UI, sans-serif" font-weight="700">Make dues and renewals visible early</text>
  <rect x="214" y="320" width="278" height="136" rx="24" fill="url(#panel)" stroke="#274159" />
  <rect x="514" y="320" width="278" height="136" rx="24" fill="url(#panel)" stroke="#274159" />
  <rect x="814" y="320" width="278" height="136" rx="24" fill="url(#panel)" stroke="#274159" />
  <rect x="1114" y="320" width="246" height="136" rx="24" fill="url(#panel)" stroke="#274159" />
  <text x="248" y="370" fill="#8ea7c1" font-size="22" font-family="Manrope, Segoe UI, sans-serif">Pending collection</text>
  <text x="248" y="424" fill="#f4fbff" font-size="50" font-family="Sora, Manrope, Segoe UI, sans-serif" font-weight="700">INR 86k</text>
  <text x="548" y="370" fill="#8ea7c1" font-size="22" font-family="Manrope, Segoe UI, sans-serif">Renewal risk</text>
  <text x="548" y="424" fill="#f4fbff" font-size="50" font-family="Sora, Manrope, Segoe UI, sans-serif" font-weight="700">17</text>
  <text x="848" y="370" fill="#8ea7c1" font-size="22" font-family="Manrope, Segoe UI, sans-serif">Collected today</text>
  <text x="848" y="424" fill="#f4fbff" font-size="50" font-family="Sora, Manrope, Segoe UI, sans-serif" font-weight="700">INR 21k</text>
  <rect x="214" y="494" width="516" height="374" rx="28" fill="url(#panel)" stroke="#274159" />
  <rect x="760" y="494" width="600" height="374" rx="28" fill="url(#panel)" stroke="#274159" />
  <rect x="252" y="586" width="440" height="82" rx="22" fill="#13253a" />
  <rect x="252" y="688" width="440" height="82" rx="22" fill="#102133" />
  <rect x="252" y="790" width="440" height="82" rx="22" fill="#13253a" />
  <rect x="284" y="614" width="124" height="26" rx="13" fill="url(#mint)" opacity="0.88" />
  <rect x="284" y="716" width="124" height="26" rx="13" fill="#22364c" />
  <rect x="284" y="818" width="124" height="26" rx="13" fill="#22364c" />
  <rect x="434" y="614" width="182" height="18" rx="9" fill="#e9f3ff" />
  <rect x="434" y="716" width="182" height="18" rx="9" fill="#e9f3ff" />
  <rect x="434" y="818" width="182" height="18" rx="9" fill="#e9f3ff" />
  <rect x="798" y="582" width="524" height="46" rx="14" fill="#102133" />
  <rect x="798" y="646" width="524" height="56" rx="18" fill="#13253a" />
  <rect x="798" y="718" width="524" height="56" rx="18" fill="#102133" />
  <rect x="798" y="790" width="524" height="56" rx="18" fill="#13253a" />
  <rect x="1092" y="655" width="156" height="36" rx="18" fill="url(#gold)" />
  <rect x="1092" y="727" width="156" height="36" rx="18" fill="url(#mint)" />
  <rect x="1092" y="799" width="156" height="36" rx="18" fill="#22364c" />
  <rect x="1128" y="136" width="232" height="62" rx="18" fill="url(#mint)" />
  <text x="1172" y="176" fill="#072017" font-size="22" font-family="Manrope, Segoe UI, sans-serif" font-weight="800">Replace later</text>
</svg>
